# xmcd
#
# Track frame offsets:
#	150
#	13750
#	28675
#	42700
#	58250
#	69875
#	85800
#	98337
#	111025
#	128850
#	144862
#	162625
#	176350
#	191375
#	203775
#	214700
#	227875
#	242700
#	259312
#	271975
#
# Disc length: 3842
#
# Revision: 2
# Processed by: cddbd v1.5.1PL0 Copyright (c) Steve Scherf et al.
# Submitted via: uFREEDB 1.6.0
# Normalized: r0:TDELIM( - ),TSWAP
#
DISCID=190f0014
DTITLE=Various Artist - Cherish
DYEAR=1995
DGENRE=R and B
TTITLE0=John Denver - Annie's Song
TTITLE1=Dolly Parton - You're the only one
TTITLE2=Rene and Renato - Save Your Love
TTITLE3=Dave Mills - Love is a beautiful song
TTITLE4=Geln Campbell/Booby Ge - All I have to do is dream
TTITLE5=Foster and Allen - I will love you all of my life
TTITLE6=Ed Ames - My Cup runneth over
TTITLE7=Francoise Hardy - Only you can do it
TTITLE8=Ronnie - What a difference you've made to my life
TTITLE9=Jose Felliciano - Light my Fire
TTITLE10=Boris Gardner - I wanna wake up with you
TTITLE11=Rick Astley - When I fall in love
TTITLE12=Perry Como - And I love you so
TTITLE13=Jim Reeves - I love you because
TTITLE14=Petula Clark - You're the one
TTITLE15=Charley Pride - Kiss an angel good morning
TTITLE16=Nilsson - Without You
TTITLE17=Morris Albert - Feelings
TTITLE18=Don Williams - You're my best friend
TTITLE19=Fairground Attraction - Perfect
EXTD=
EXTT0=
EXTT1=
EXTT2=
EXTT3=
EXTT4=
EXTT5=
EXTT6=
EXTT7=
EXTT8=
EXTT9=
EXTT10=
EXTT11=
EXTT12=
EXTT13=
EXTT14=
EXTT15=
EXTT16=
EXTT17=
EXTT18=
EXTT19=
PLAYORDER=
